<svg xmlns="http://www.w3.org/2000/svg" viewBox="0 0 32 32">
  <style>
    .bg { fill: #050505; }
    @media (prefers-color-scheme: dark) {
      .bg { fill: #ffffff; }
    }
  </style>
  <mask id="c-knockout">
    <rect width="32" height="32" fill="#ffffff"/>
    <path fill="#000000" d="M23.08 19.87Q22.95 20.97 22.43 21.91Q21.92 22.85 21.09 23.54Q20.25 24.23 19.15 24.62Q18.05 25.00 16.73 25.00Q14.32 25.00 12.55 23.89Q10.78 22.77 9.82 20.80Q8.85 18.82 8.85 16.20Q8.85 14.17 9.44 12.48Q10.03 10.80 11.10 9.57Q12.17 8.34 13.64 7.67Q15.11 7.00 16.88 7.00Q18.11 7.00 18.93 7.28Q19.74 7.57 20.17 7.85Q20.60 8.14 20.67 8.14Q20.80 8.14 21.02 7.85Q21.24 7.57 21.45 7.28Q21.66 7.00 21.71 7.00Q21.75 7.00 21.78 7.03Q21.81 7.06 21.83 7.16L23.13 11.75Q23.16 11.83 23.14 11.89Q23.12 11.95 23.06 11.96Q23.00 11.97 22.94 11.93Q22.89 11.90 22.84 11.80Q22.21 10.18 21.38 9.18Q20.55 8.19 19.54 7.72Q18.53 7.26 17.37 7.26Q16.11 7.26 15.06 7.79Q14.01 8.32 13.23 9.34Q12.45 10.35 12.02 11.83Q11.60 13.30 11.60 15.21Q11.60 18.05 12.41 20.00Q13.23 21.95 14.68 22.95Q16.12 23.96 18.03 23.96Q20.00 23.96 21.28 22.84Q22.55 21.72 22.97 19.84Q22.98 19.80 23.00 19.78Q23.01 19.76 23.03 19.77Q23.07 19.77 23.08 19.80Q23.10 19.83 23.08 19.87Z"/>
  </mask>
  <rect class="bg" width="32" height="32" rx="7" ry="7" mask="url(#c-knockout)"/>
</svg>
