<svg xmlns="http://www.w3.org/2000/svg" viewBox="0 0 32 32" width="32" height="32">
  <rect width="32" height="32" rx="8" fill="#000000"/>
  <path d="M16.18 25.00Q13.83 25.00 12.03 23.92Q10.24 22.84 9.22 20.84Q8.20 18.84 8.20 16.02Q8.20 13.26 9.20 11.23Q10.19 9.21 11.99 8.10Q13.78 7.00 16.21 7.00Q19.51 7.00 21.32 8.64Q23.14 10.27 23.70 13.21L20.40 13.38Q20.09 11.68 19.04 10.71Q18.00 9.74 16.21 9.74Q14.75 9.74 13.68 10.52Q12.62 11.29 12.03 12.70Q11.45 14.11 11.45 16.02Q11.45 17.96 12.05 19.36Q12.64 20.75 13.71 21.51Q14.77 22.26 16.18 22.26Q18.10 22.26 19.15 21.20Q20.21 20.15 20.50 18.30L23.80 18.47Q23.46 20.49 22.49 21.96Q21.52 23.42 19.93 24.21Q18.34 25.00 16.18 25.00Z" fill="#10b981"/>
</svg>
